<svg width="116" height="119" viewBox="0 0 116 119" fill="none" xmlns="http://www.w3.org/2000/svg">
<path fill-rule="evenodd" clip-rule="evenodd" d="M93 38C91.8954 38 91 37.1046 91 36V35C91 20.0883 78.9117 8 64 8H63C61.8954 8 61 7.10457 61 6V2C61 0.895431 61.8954 0 63 0H64C83.3299 0 99 15.67 99 35L99 36C99 37.1046 98.1046 38 97 38H93Z" fill="#EF4444"/>
<mask id="path-2-inside-1_1_33" fill="white">
<path fill-rule="evenodd" clip-rule="evenodd" d="M93.56 61C93.0395 61 92.7792 61 92.5637 61.0482C91.8076 61.2172 91.2172 61.8076 91.0482 62.5637C91 62.7792 91 63.0395 91 63.56V64C91 78.9117 78.9117 91 64 91H63.56C63.0395 91 62.7792 91 62.5637 91.0482C61.8076 91.2172 61.2172 91.8076 61.0482 92.5637C61 92.7792 61 93.0395 61 93.56V96.44C61 96.9605 61 97.2208 61.0482 97.4363C61.2172 98.1924 61.8076 98.7828 62.5637 98.9518C62.7792 99 63.0395 99 63.56 99H64C83.3299 99 99 83.33 99 64L99 63.56C99 63.0395 99 62.7792 98.9518 62.5637C98.7828 61.8076 98.1924 61.2172 97.4363 61.0482C97.2208 61 96.9605 61 96.44 61H93.56Z"/>
</mask>
<path fill-rule="evenodd" clip-rule="evenodd" d="M93.56 61C93.0395 61 92.7792 61 92.5637 61.0482C91.8076 61.2172 91.2172 61.8076 91.0482 62.5637C91 62.7792 91 63.0395 91 63.56V64C91 78.9117 78.9117 91 64 91H63.56C63.0395 91 62.7792 91 62.5637 91.0482C61.8076 91.2172 61.2172 91.8076 61.0482 92.5637C61 92.7792 61 93.0395 61 93.56V96.44C61 96.9605 61 97.2208 61.0482 97.4363C61.2172 98.1924 61.8076 98.7828 62.5637 98.9518C62.7792 99 63.0395 99 63.56 99H64C83.3299 99 99 83.33 99 64L99 63.56C99 63.0395 99 62.7792 98.9518 62.5637C98.7828 61.8076 98.1924 61.2172 97.4363 61.0482C97.2208 61 96.9605 61 96.44 61H93.56Z" fill="#EF4444"/>
<path d="M99 64L100 64V64H99ZM99 63.56L98 63.56L99 63.56ZM98.9518 62.5637L97.9759 62.7819L98.9518 62.5637ZM97.4363 61.0482L97.6544 60.0722L97.4363 61.0482ZM62.5637 98.9518L62.3456 99.9278L62.5637 98.9518ZM62.5637 91.0482L62.3456 90.0722L62.5637 91.0482ZM61.0482 92.5637L62.0241 92.7819L61.0482 92.5637ZM91.0482 62.5637L90.0723 62.3456L91.0482 62.5637ZM92.5637 61.0482L92.3456 60.0722L92.5637 61.0482ZM90 64V63.56H92V64H90ZM64 90C78.3594 90 90 78.3594 90 64H92C92 79.464 79.464 92 64 92V90ZM63.56 90H64V92H63.56V90ZM60 96.44V93.56H62V96.44H60ZM64 100H63.56V98H64V100ZM100 64C100 83.8823 83.8822 100 64 100V98C82.7777 98 98 82.7777 98 64H100ZM100 63.56L100 64L98 64L98 63.56L100 63.56ZM93.56 60H96.44V62H93.56V60ZM98 63.56C98 62.9857 97.9939 62.8624 97.9759 62.7819L99.9278 62.3456C100.006 62.696 100 63.0933 100 63.56L98 63.56ZM96.44 60C96.9067 60 97.304 59.9939 97.6544 60.0722L97.2181 62.0241C97.1376 62.0061 97.0143 62 96.44 62V60ZM97.9759 62.7819C97.8914 62.4038 97.5962 62.1086 97.2181 62.0241L97.6544 60.0722C98.7886 60.3258 99.6742 61.2114 99.9278 62.3456L97.9759 62.7819ZM62 96.44C62 97.0143 62.0061 97.1376 62.0241 97.2181L60.0722 97.6544C59.9939 97.304 60 96.9067 60 96.44H62ZM63.56 100C63.0933 100 62.696 100.006 62.3456 99.9278L62.7819 97.9759C62.8624 97.9939 62.9857 98 63.56 98V100ZM62.0241 97.2181C62.1086 97.5962 62.4038 97.8914 62.7819 97.9759L62.3456 99.9278C61.2115 99.6742 60.3258 98.7885 60.0722 97.6544L62.0241 97.2181ZM63.56 92C62.9857 92 62.8624 92.0061 62.7819 92.0241L62.3456 90.0722C62.696 89.9939 63.0933 90 63.56 90V92ZM60 93.56C60 93.0933 59.9939 92.696 60.0722 92.3456L62.0241 92.7819C62.0061 92.8624 62 92.9857 62 93.56H60ZM62.7819 92.0241C62.4038 92.1086 62.1086 92.4038 62.0241 92.7819L60.0722 92.3456C60.3258 91.2115 61.2115 90.3258 62.3456 90.0722L62.7819 92.0241ZM90 63.56C90 63.0933 89.9939 62.696 90.0723 62.3456L92.0241 62.7819C92.0061 62.8624 92 62.9857 92 63.56H90ZM93.56 62C92.9857 62 92.8624 62.0061 92.7819 62.0241L92.3456 60.0722C92.696 59.9939 93.0933 60 93.56 60V62ZM90.0723 62.3456C90.3258 61.2115 91.2115 60.3258 92.3456 60.0722L92.7819 62.0241C92.4038 62.1086 92.1086 62.4038 92.0241 62.7819L90.0723 62.3456Z" fill="#EF4444" mask="url(#path-2-inside-1_1_33)"/>
<path d="M99 64L100 64V64H99ZM99 63.56L98 63.56L99 63.56ZM98.9518 62.5637L97.9759 62.7819L98.9518 62.5637ZM97.4363 61.0482L97.6544 60.0722L97.4363 61.0482ZM62.5637 98.9518L62.3456 99.9278L62.5637 98.9518ZM62.5637 91.0482L62.3456 90.0722L62.5637 91.0482ZM61.0482 92.5637L62.0241 92.7819L61.0482 92.5637ZM91.0482 62.5637L90.0723 62.3456L91.0482 62.5637ZM92.5637 61.0482L92.3456 60.0722L92.5637 61.0482ZM90 64V63.56H92V64H90ZM64 90C78.3594 90 90 78.3594 90 64H92C92 79.464 79.464 92 64 92V90ZM63.56 90H64V92H63.56V90ZM60 96.44V93.56H62V96.44H60ZM64 100H63.56V98H64V100ZM100 64C100 83.8823 83.8822 100 64 100V98C82.7777 98 98 82.7777 98 64H100ZM100 63.56L100 64L98 64L98 63.56L100 63.56ZM93.56 60H96.44V62H93.56V60ZM98 63.56C98 62.9857 97.9939 62.8624 97.9759 62.7819L99.9278 62.3456C100.006 62.696 100 63.0933 100 63.56L98 63.56ZM96.44 60C96.9067 60 97.304 59.9939 97.6544 60.0722L97.2181 62.0241C97.1376 62.0061 97.0143 62 96.44 62V60ZM97.9759 62.7819C97.8914 62.4038 97.5962 62.1086 97.2181 62.0241L97.6544 60.0722C98.7886 60.3258 99.6742 61.2114 99.9278 62.3456L97.9759 62.7819ZM62 96.44C62 97.0143 62.0061 97.1376 62.0241 97.2181L60.0722 97.6544C59.9939 97.304 60 96.9067 60 96.44H62ZM63.56 100C63.0933 100 62.696 100.006 62.3456 99.9278L62.7819 97.9759C62.8624 97.9939 62.9857 98 63.56 98V100ZM62.0241 97.2181C62.1086 97.5962 62.4038 97.8914 62.7819 97.9759L62.3456 99.9278C61.2115 99.6742 60.3258 98.7885 60.0722 97.6544L62.0241 97.2181ZM63.56 92C62.9857 92 62.8624 92.0061 62.7819 92.0241L62.3456 90.0722C62.696 89.9939 63.0933 90 63.56 90V92ZM60 93.56C60 93.0933 59.9939 92.696 60.0722 92.3456L62.0241 92.7819C62.0061 92.8624 62 92.9857 62 93.56H60ZM62.7819 92.0241C62.4038 92.1086 62.1086 92.4038 62.0241 92.7819L60.0722 92.3456C60.3258 91.2115 61.2115 90.3258 62.3456 90.0722L62.7819 92.0241ZM90 63.56C90 63.0933 89.9939 62.696 90.0723 62.3456L92.0241 62.7819C92.0061 62.8624 92 62.9857 92 63.56H90ZM93.56 62C92.9857 62 92.8624 62.0061 92.7819 62.0241L92.3456 60.0722C92.696 59.9939 93.0933 60 93.56 60V62ZM90.0723 62.3456C90.3258 61.2115 91.2115 60.3258 92.3456 60.0722L92.7819 62.0241C92.4038 62.1086 92.1086 62.4038 92.0241 62.7819L90.0723 62.3456Z" fill="#EF4444" fill-opacity="0.2" mask="url(#path-2-inside-1_1_33)"/>
<path fill-rule="evenodd" clip-rule="evenodd" d="M6 38C7.10457 38 8 37.1046 8 36V35C8 20.0883 20.0883 8 35 8H36C37.1046 8 38 7.10457 38 6V2C38 0.895431 37.1046 0 36 0H35C15.6701 0 -3.8147e-06 15.67 -3.8147e-06 35L-2.54313e-06 36C-1.1386e-06 37.1046 0.895428 38 2 38H6Z" fill="#EF4444"/>
<path fill-rule="evenodd" clip-rule="evenodd" d="M6 61C7.10457 61 8 61.8954 8 63V64C8 78.9117 20.0883 91 35 91H36C37.1046 91 38 91.8954 38 93V97C38 98.1046 37.1046 99 36 99H35C15.6701 99 -3.8147e-06 83.33 -3.8147e-06 64L-2.54313e-06 63C-1.1386e-06 61.8954 0.895428 61 2 61H6Z" fill="#EF4444"/>
<circle cx="103.5" cy="106.5" r="6.5" fill="#EF4444" stroke="#EF4444" stroke-width="12"/>
</svg>
